# Blender 4.5.4 LTS
# www.blender.org
o Star
v 0.589790 0.589790 -0.589790
v 0.589790 -0.589790 -0.589790
v 0.589790 0.589790 0.589790
v 0.589790 -0.589790 0.589790
v -0.589790 0.589790 -0.589790
v -0.589790 -0.589790 -0.589790
v -0.589790 0.589790 0.589790
v -0.589790 -0.589790 0.589790
v 0.000000 -0.000000 -1.889261
v 1.889261 0.000000 0.000000
v 0.000000 -1.889261 0.000000
v -1.889261 0.000000 0.000000
v 0.000000 0.000000 1.889261
v 0.000000 1.889261 -0.000000
vn -0.0000 -0.9106 -0.4133
vn 0.4133 -0.9106 -0.0000
vn -0.0000 -0.9106 0.4133
vn -0.9106 -0.4133 -0.0000
vn -0.4133 -0.9106 -0.0000
vn -0.4133 0.9106 -0.0000
vn -0.9106 -0.0000 -0.4133
vn 0.9106 -0.0000 -0.4133
vn 0.9106 -0.4133 -0.0000
vn 0.4133 -0.0000 -0.9106
vn 0.4133 -0.0000 0.9106
vn -0.0000 -0.4133 0.9106
vn -0.0000 -0.4133 -0.9106
vn -0.0000 0.9106 0.4133
vn -0.4133 -0.0000 0.9106
vn -0.4133 -0.0000 -0.9106
vn 0.4133 0.9106 -0.0000
vn 0.9106 -0.0000 0.4133
vn -0.9106 -0.0000 0.4133
vn -0.0000 0.9106 -0.4133
vn -0.0000 0.4133 -0.9106
vn -0.0000 0.4133 0.9106
vn 0.9106 0.4133 -0.0000
vn -0.9106 0.4133 -0.0000
vt 0.954612 0.061508
vt 0.506201 0.975914
vt 0.057790 0.061508
s 1
f 6/1/1 9/2/1 2/3/1
f 4/1/2 2/2/2 10/3/2
f 8/1/3 4/2/3 13/3/3
f 6/1/4 11/2/4 8/3/4
f 8/1/5 12/2/5 6/3/5
f 5/1/6 12/2/6 7/3/6
f 5/1/7 9/2/7 6/3/7
f 2/1/8 9/2/8 1/3/8
f 2/1/9 4/2/9 11/3/9
f 2/1/10 1/2/10 10/3/10
f 4/1/11 10/2/11 3/3/11
f 8/1/12 11/2/12 4/3/12
f 11/1/13 6/2/13 2/3/13
f 7/1/14 13/2/14 3/3/14
f 7/1/15 12/2/15 8/3/15
f 6/1/16 12/2/16 5/3/16
f 1/1/17 3/2/17 10/3/17
f 13/1/18 4/2/18 3/3/18
f 8/1/19 13/2/19 7/3/19
f 5/1/20 1/2/20 9/3/20
f 5/1/21 14/2/21 1/3/21
f 3/1/22 14/2/22 7/3/22
f 3/1/23 1/2/23 14/3/23
f 7/1/24 14/2/24 5/3/24
